<svg width="30" height="30" viewBox="0 0 30 30" fill="none" xmlns="http://www.w3.org/2000/svg">
<path d="M17.8599 0L3.62988 10.42V19.07L17.8599 29.49C17.8299 7.26 17.8599 18.17 17.8599 0Z" fill="#B3B3B3"/>
<path d="M0 21.9199H7.47V7.55992H0V21.9199Z" fill="#B3B3B3"/>
<path d="M23.6901 22.0801C23.3095 22.0796 22.9408 21.9476 22.6464 21.7064C22.352 21.4652 22.15 21.1297 22.0747 20.7566C21.9993 20.3835 22.0553 19.9959 22.2331 19.6594C22.4108 19.3229 22.6995 19.0581 23.0501 18.9101C23.8657 18.5635 24.5607 17.9838 25.0482 17.2438C25.5356 16.5037 25.7937 15.6362 25.7901 14.7501C25.7936 14.149 25.6745 13.5535 25.4401 13.0001C25.2032 12.4627 24.8635 11.9769 24.4401 11.5701C24.0313 11.1489 23.5459 10.8095 23.0101 10.5701C22.6565 10.3727 22.3884 10.0515 22.2575 9.66825C22.1265 9.28504 22.142 8.86693 22.301 8.49445C22.4599 8.12197 22.751 7.82146 23.1182 7.6508C23.4855 7.48013 23.9029 7.45138 24.2901 7.57008C25.4626 8.07189 26.4951 8.8522 27.2978 9.84332C28.1006 10.8344 28.6494 12.0064 28.8967 13.2577C29.144 14.5089 29.0823 15.8016 28.7169 17.0235C28.3516 18.2455 27.6936 19.3599 26.8001 20.2701C26.0943 20.9834 25.255 21.5508 24.3301 21.9401C24.1283 22.0293 23.9107 22.0769 23.6901 22.0801Z" fill="#B3B3B3"/>
</svg>
